<svg width="171" height="205" viewBox="0 0 171 205" fill="none" xmlns="http://www.w3.org/2000/svg">
<path d="M31.6287 67.3219C30.0287 66.9219 28.3287 67.6219 27.3287 68.9219C11.5287 91.1219 -0.671323 112.022 0.0286769 140.922C0.828677 174.422 29.7287 204.422 85.0287 204.422C140.329 204.422 168.129 174.322 170.029 140.922C171.829 108.522 128.729 44.4219 120.929 31.8219C120.529 31.1219 120.329 30.3219 120.329 29.5219L120.429 24.4219C120.529 21.2219 117.029 19.1219 114.229 20.7219L105.129 25.8219C102.129 27.5219 102.329 31.8219 105.429 33.2219L108.829 34.8219C109.629 35.2219 110.229 35.8219 110.729 36.5219C116.029 45.8219 149.929 108.322 142.129 141.122C134.829 171.422 108.829 179.422 83.7287 181.822C61.2287 183.922 17.8287 173.722 12.1287 139.322C7.12868 109.122 29.3287 78.0219 31.9287 74.1219C33.6287 71.6219 35.5287 68.3219 32.5287 67.6219L31.6287 67.3219Z" fill="#59B24C"/>
<path d="M74.3287 2.32187C70.9287 1.72187 67.4287 1.62187 64.6287 2.82187C63.2287 3.42187 61.9287 4.22187 60.8287 5.22187L60.0287 6.02187L59.2287 6.92187C58.8287 7.52187 58.3287 8.12187 58.0287 8.72187C56.7287 11.2219 56.6287 13.6219 57.1287 16.5219C57.4287 18.0219 57.8287 19.4219 58.3287 20.7219C58.5287 21.4219 58.8287 22.0219 59.1287 22.6219L60.1287 24.7219C63.0287 30.4219 66.4287 36.1219 69.8287 41.8219C70.7287 43.3219 71.6287 44.9219 72.4287 46.4219C73.2287 48.0219 74.0287 49.6219 74.8287 51.2219C76.4287 54.4219 77.8287 57.8219 79.1287 61.2219C79.8287 62.9219 80.3287 64.6219 80.8287 66.4219C81.4287 68.3219 81.9287 70.2219 82.2287 72.2219C82.9287 76.1219 83.2287 80.2219 82.8287 84.3219C82.1287 92.4219 79.1287 100.522 73.3287 106.722C71.8287 108.222 70.2287 109.722 68.4287 110.822C66.6287 112.022 64.8287 112.922 62.9287 113.622C59.1287 115.022 55.2287 115.622 51.4287 115.622C43.8287 115.622 36.7287 113.222 30.8287 109.522C37.7287 110.422 44.5287 110.322 50.5287 108.722C53.5287 107.922 56.3287 106.722 58.6287 105.122C59.8287 104.322 60.8287 103.522 61.8287 102.522C62.3287 102.022 62.7287 101.522 63.1287 101.022C63.5287 100.522 63.8287 99.9219 64.2287 99.4219C66.9287 94.8219 68.0287 89.2219 67.9287 83.7219C67.8287 80.9219 67.5287 78.1219 66.8287 75.4219C66.5287 74.0219 66.1287 72.6219 65.7287 71.3219C65.2287 69.8219 64.7287 68.3219 64.1287 66.8219C63.1287 63.8219 61.8287 60.8219 60.6287 57.8219C60.0287 56.3219 59.3287 54.8219 58.7287 53.3219C58.1287 51.8219 57.4287 50.3219 56.7287 48.8219C53.8287 42.4219 51.2287 35.8219 49.5287 28.5219C49.3287 27.6219 49.1287 26.7219 48.9287 25.7219C48.7287 24.7219 48.6287 23.7219 48.5287 22.7219C48.3287 20.7219 48.4287 18.7219 48.6287 16.7219C48.8287 14.8219 49.2287 12.6219 50.0287 10.6219C50.8287 8.62187 52.0287 6.72187 53.5287 5.32187C54.2287 4.62187 55.0287 3.92187 55.8287 3.42187L57.0287 2.62187L58.2287 1.92187C59.9287 1.02187 61.8287 0.321873 63.7287 0.121873C65.6287 -0.178127 67.5287 0.121873 69.2287 0.521873C71.2287 0.821873 72.8287 1.52187 74.3287 2.32187Z" fill="#DC0D17"/>
</svg>
